<?xml version="1.0" ?><svg width="128px" height="128px" viewBox="0 0 128 128" data-name="Layer 2" id="Layer_2" xmlns="http://www.w3.org/2000/svg"><defs><style>.cls-1{fill:#42b883;}.cls-2{fill:#35495e;}.cls-3{fill:#35495e;}</style></defs><title/><path class="cls-1" d="M64.2,15.59l13.33,16.3h0a33.79,33.79,0,0,0-.65,26.57l.65,1.62L64.2,72.91,50.86,60.08l.65-1.62a33.74,33.74,0,0,0-.65-26.57h0Z"/><path class="cls-2" d="M73.56,41.26a.75.75,0,0,0-1-.4C69.05,42.37,66.44,46.22,65,49V15.59a.75.75,0,0,0-1.5,0V40.67a26.31,26.31,0,0,0-8.23-8.94.77.77,0,0,0-1,.24.75.75,0,0,0,.24,1,22.45,22.45,0,0,1,2.29,1.76L62.5,42.1a18.51,18.51,0,0,1,1,2.28v16.5a18.07,18.07,0,0,0-7.7-7,.75.75,0,1,0-.59,1.38,11.6,11.6,0,0,1,2,1.07l5,5.28A20.5,20.5,0,0,1,63.45,64v8.95a.75.75,0,0,0,1.5,0V63.79h0V52.46a26.56,26.56,0,0,1,1.25-2.63l5.38-6.68a9,9,0,0,1,1.58-.91A.75.75,0,0,0,73.56,41.26Z"/><path class="cls-1" d="M18.37,112.41l4.42-20.59h0A33.73,33.73,0,0,0,44,75.75l.87-1.52,18.35,2.41L61.46,95.07l-1.67.5a33.72,33.72,0,0,0-20.35,17.09h0Z"/><path class="cls-2" d="M56.64,82.81l7-5.58a.75.75,0,1,0-.93-1.17l-7.13,5.68h0l-8.85,7.07c-.35.1-1.41.39-2.83.66l-8.59,0a8,8,0,0,1-1.69-.67.76.76,0,0,0-1,.31.74.74,0,0,0,.31,1,13.42,13.42,0,0,0,6.35,1.35A26.87,26.87,0,0,0,44,91L17.9,111.83a.75.75,0,0,0-.11,1,.71.71,0,0,0,.58.28.76.76,0,0,0,.47-.16l19.6-15.66a25.94,25.94,0,0,0-1.84,12,.75.75,0,0,0,.74.67h.08a.74.74,0,0,0,.66-.83,22.39,22.39,0,0,1,0-2.88l2.12-9.11A17.68,17.68,0,0,1,41.34,95l12.89-10.3a18.19,18.19,0,0,0-.69,10.41.75.75,0,0,0,.72.55.64.64,0,0,0,.2,0,.75.75,0,0,0,.53-.92,11.29,11.29,0,0,1-.39-2.2l1-7.2A20.44,20.44,0,0,1,56.64,82.81Z"/><path class="cls-1" d="M109.63,112.41l-4.42-20.59h0A33.73,33.73,0,0,1,84.05,75.75l-.87-1.52L64.83,76.64l1.71,18.43,1.67.5a33.72,33.72,0,0,1,20.35,17.09h0Z"/><path class="cls-2" d="M110.1,111.83,84,91a26.87,26.87,0,0,0,4.76.46,13.42,13.42,0,0,0,6.35-1.35.74.74,0,0,0,.31-1,.76.76,0,0,0-1-.31,7.92,7.92,0,0,1-1.7.67l-8.57,0c-1.43-.27-2.49-.56-2.84-.66l-8.85-7.07h0L65.3,76.06a.75.75,0,1,0-.93,1.17l7,5.58a20,20,0,0,1,1,2.52l1,7.22A12,12,0,0,1,73,94.74a.75.75,0,0,0,.53.92.64.64,0,0,0,.2,0,.75.75,0,0,0,.72-.55,18.19,18.19,0,0,0-.69-10.41l6.67,5.33h0l6.22,5a17.68,17.68,0,0,1,1.19,2.16L90,106.3a22.39,22.39,0,0,1,0,2.88.74.74,0,0,0,.66.83h.08a.75.75,0,0,0,.74-.67,25.94,25.94,0,0,0-1.84-12L109.16,113a.76.76,0,0,0,.47.16.71.71,0,0,0,.58-.28A.75.75,0,0,0,110.1,111.83Z"/><circle class="cls-3" cx="58.21" cy="72.91" r="5.99"/><circle class="cls-3" cx="64.2" cy="83.56" r="5.99"/><circle class="cls-3" cx="70.19" cy="72.91" r="5.99"/></svg>
